<?xml version="1.0" encoding="UTF-8" standalone="no"?>
<svg
   viewBox="0 0 474.45386 448.10001"
   version="1.1"
   id="svg4"
   sodipodi:docname="reddit.svg"
   inkscape:version="1.2.2 (b0a8486541, 2022-12-01)"
   width="474.45386"
   height="448.10001"
   xmlns:inkscape="http://www.inkscape.org/namespaces/inkscape"
   xmlns:sodipodi="http://sodipodi.sourceforge.net/DTD/sodipodi-0.dtd"
   xmlns="http://www.w3.org/2000/svg"
   xmlns:svg="http://www.w3.org/2000/svg">
  <defs
     id="defs8" />
  <sodipodi:namedview
     id="namedview6"
     pagecolor="#505050"
     bordercolor="#ffffff"
     borderopacity="1"
     inkscape:showpageshadow="0"
     inkscape:pageopacity="0"
     inkscape:pagecheckerboard="1"
     inkscape:deskcolor="#505050"
     showgrid="false"
     inkscape:zoom="1.4804688"
     inkscape:cx="165.15039"
     inkscape:cy="225.26648"
     inkscape:window-width="1920"
     inkscape:window-height="1080"
     inkscape:window-x="0"
     inkscape:window-y="0"
     inkscape:window-maximized="1"
     inkscape:current-layer="svg4" />
  <!--! Font Awesome Pro 6.2.1 by @fontawesome - https://fontawesome.com License - https://fontawesome.com/license (Commercial License) Copyright 2022 Fonticons, Inc. -->
  <path
     d="m 421.54717,171.6 c -15,0 -28.2,6.2 -37.9,15.9 -35.7,-24.7 -83.8,-40.6 -137.1,-42.3 l 27.7,-124.8 88.2,19.8 c 0,21.6 17.6,39.2 39.2,39.2 22,0 39.7,-18.1 39.7,-39.7 0,-21.6 -17.6,-39.7 -39.7,-39.7 -15.4,0 -28.7,9.3 -35.3,22 l -97.4,-21.6 c -4.9,-1.3 -9.7,2.2 -11,7.1 l -30.4,137.6 c -52.9,2.2 -100.5,18.1 -136.299997,42.8 -9.7,-10.1 -23.4,-16.3 -38.4,-16.3 -55.6000001,0 -73.8,74.6 -22.9,100.1 -1.8,7.9 -2.6,16.3 -2.6,24.7 0,83.8 94.399997,151.7 210.299997,151.7 116.4,0 210.8,-67.9 210.8,-151.7 0,-8.4 -0.9,-17.2 -3.1,-25.1 49.9,-25.6 31.5,-99.7 -23.8,-99.7 z m -310.9,105.4 c 0,-22 17.6,-39.7 39.7,-39.7 21.6,0 39.2,17.6 39.2,39.7 0,21.6 -17.6,39.2 -39.2,39.2 -22,0.1 -39.7,-17.6 -39.7,-39.2 z m 214.3,93.5 c -36.4,36.4 -139.1,36.4 -175.5,0 -4,-3.5 -4,-9.7 0,-13.7 3.5,-3.5 9.7,-3.5 13.2,0 27.8,28.5 120,29 149,0 3.5,-3.5 9.7,-3.5 13.2,0 4.1,4 4.1,10.2 0.1,13.7 z m -0.8,-54.2 c -21.6,0 -39.2,-17.6 -39.2,-39.2 0,-22 17.6,-39.7 39.2,-39.7 22,0 39.7,17.6 39.7,39.7 -0.1,21.5 -17.7,39.2 -39.7,39.2 z"
     id="path2" />
</svg>
